<?xml version="1.0" encoding="utf-8"?>
<!-- Generator: Adobe Illustrator 17.1.0, SVG Export Plug-In . SVG Version: 6.00 Build 0)  -->
<!DOCTYPE svg PUBLIC "-//W3C//DTD SVG 1.1//EN" "http://www.w3.org/Graphics/SVG/1.1/DTD/svg11.dtd">
<svg version="1.1" id="Layer_1" xmlns="http://www.w3.org/2000/svg" xmlns:xlink="http://www.w3.org/1999/xlink" x="0px" y="0px"
	 viewBox="0 410 3458 205" enable-background="new 0 410 3458 205" xml:space="preserve">
<path id="frontwave" fill="#41AABB" d="M3416.4,410h-0.3c-2.8,14-20.9,24.7-42.8,24.7c-21.9,0-40-10.8-42.8-24.7h-0.7
	c-25,25-65.5,25-90.5,0c0,0-1,2.1-11.1,8.9c-10.1,6.7-10.1,8.1-35.7,10.8c-19.2,2-25.6-0.5-41.8-9.3c-1.8-1-6.5-3.1-10.1-4.7l0-0.2
	c-24.8,24.8-64.9,25-90,0.5c-25,24.5-65.2,24.3-90-0.5h-0.6c-3,14-22.1,24.7-45.3,24.7s-42.3-10.8-45.3-24.7h-0.3
	c-2.8,14-20.9,24.7-42.8,24.7c-21.9,0-40-10.8-42.8-24.7h-0.7c-25,25-65.5,25-90.5,0c0,0-1,2.1-11.1,8.9
	c-10.1,6.7-10.1,8.1-35.7,10.8c-19.2,2-25.6-0.5-41.8-9.3c-1.8-1-6.6-3.1-10.2-4.7c0.1,0.1,0.6,7.6,1.4,19.7l-1.5-19.9
	c-24.8,24.8-64.9,25-90,0.5c-25,24.5-65.2,24.3-90-0.5h-0.6c-3,14-22.1,24.7-45.3,24.7s-42.3-10.8-45.3-24.7h-0.3
	c-2.8,14-20.9,24.7-42.8,24.7c-21.9,0-40-10.8-42.8-24.7h-0.7c-25,25-65.5,25-90.5,0c0,0-1,2.1-11.1,8.9
	c-10.1,6.7-10.1,8.1-35.7,10.8c-2.3,0.2-4.4,0.4-6.4,0.5V441c-9.3,0-18.2-1.7-25.7-4.7c-2.6-1.2-5.4-2.7-8.6-4.4
	c-6.5-4.2-10.9-9.5-12.2-15.5h-0.3c-2.8,14-20.9,24.7-42.8,24.7c-21.9,0-40-10.8-42.8-24.7h-0.7c-25,25-65.5,25-90.5,0
	c0,0-1,2.1-11.1,8.9c-10.1,6.7-10.1,8.1-35.7,10.8c-19.2,2-25.6-0.5-41.8-9.3c-1.8-1-6.5-3.1-10.1-4.7l0-0.2
	c-24.8,24.8-64.9,25-90,0.5c-25,24.5-65.2,24.3-90-0.5h-0.6c-3,14-22.1,24.7-45.3,24.7c-23.2,0-42.3-10.8-45.3-24.7h-0.3
	c-2.8,14-20.9,24.7-42.8,24.7c-21.9,0-40-10.8-42.8-24.7h-0.7c-25,25-65.5,25-90.5,0c0,0-1,2.1-11.1,8.9
	c-10.1,6.7-10.1,8.1-35.7,10.8c-19.2,2-25.6-0.5-41.8-9.3c-1.8-1-6.6-3.1-10.2-4.7c0.1,0.1,0.6,7.6,1.4,19.7l-1.5-19.9
	c-24.8,24.8-64.9,25-90,0.5c-25,24.5-65.2,24.3-90-0.5h-0.6c-3,14-22.1,24.7-45.3,24.7s-42.3-10.8-45.3-24.7h-0.3
	c-2.8,14-20.9,24.7-42.8,24.7c-21.9,0-40-10.8-42.8-24.7h-0.7c-25,25-65.5,25-90.5,0c0,0-1,2.1-11.1,8.9
	c-10.1,6.7-10.1,8.1-35.7,10.8c-17.5,1.8-31.4,3.2-45.9-3.2v-0.1c-0.1,0-0.2,0-0.2,0c-1.3-0.6-2.7-1.3-4.1-2l-0.1-0.9c0,0,0,0,0,0
	l0,2.8c-21.3-1.2-39.3-11.4-42.1-24.5h-0.3c-2.8,14-20.9,24.7-42.8,24.7c-21.9,0-40-10.8-42.8-24.7H548c-25,25-65.5,25-90.5,0
	c0,0-1,2.1-11.1,8.9c-10.1,6.7-10.1,8.1-35.7,10.8c-19.2,2-25.6-0.5-41.8-9.3c-1.8-1-6.5-3.1-10.1-4.7l0-0.2
	c-24.8,24.8-64.9,25-90,0.5c-25,24.5-65.2,24.3-90-0.5h-0.6c-3,14-22.1,24.7-45.3,24.7s-42.3-10.8-45.3-24.7h-0.3
	c-2.8,14-20.9,24.7-42.8,24.7S2.8,438.6,0,424.6l0,0c-0.3,0.3,0.4,0.7,0,1V615h3458V434.4C3436.9,433.1,3419.1,423,3416.4,410z
	 M358.8,425c0.1,0.1,0.2,3.5,0.5,9.4L358.8,425z M1769.4,422.2c0.1,0.1,0.2,3.5,0.5,9.4L1769.4,422.2z M3140.5,415.8
	c0.1,0.1,0.2,3.5,0.5,9.4L3140.5,415.8z"/>
</svg>
